<svg width="28" height="27" viewBox="0 0 28 27" fill="none" xmlns="http://www.w3.org/2000/svg">
<path d="M2.88725 1.29412H2.6287L2.43132 1.46112C1.11056 2.57858 1.11056 4.61495 2.43132 5.73241L2.6287 5.89941H2.88725H15.042C16.2961 5.89941 16.9276 7.4126 16.0455 8.30411L5.64527 18.8158L5.12754 19.3391L5.67206 19.8344L8.07402 22.0195L8.56578 22.4668L9.04179 22.0028L19.5145 11.7923C20.4089 10.9203 21.9118 11.554 21.9118 12.8032V24.4873V24.7839L22.1237 24.9915C23.256 26.1008 25.0675 26.1008 26.1999 24.9915L26.4118 24.7839V24.4873V2V1.29412H25.7059H2.88725Z" fill="#EDB158" stroke="#553507" stroke-width="1.41176"/>
</svg>
