<svg width="105" height="90" viewBox="0 0 105 90" fill="none" xmlns="http://www.w3.org/2000/svg">
<g filter="url(#filter0_d_590_546)">
<path d="M23.8711 50.3684C27.0686 48.3401 56.1122 29.9163 70.2344 20.9579" stroke="#553507" stroke-width="4"/>
<path d="M33.9004 65.4641C37.0979 63.4358 66.1415 45.012 80.2637 36.0536" stroke="#553507" stroke-width="4"/>
<path fill-rule="evenodd" clip-rule="evenodd" d="M84.4151 20.2729C85.7352 17.7796 85.6737 14.6964 84.0186 12.2069C81.5663 8.51825 76.4723 7.42138 72.6171 9.8669C68.7624 12.3121 67.7161 17.303 70.1672 20.9915L66.7895 23.1342C63.0955 17.5761 64.7129 10.1451 70.4026 6.53586C76.0927 2.92631 83.7011 4.50602 87.3963 10.0642C90.3101 14.4469 89.9208 19.9946 86.8362 23.9147L84.4151 20.2729Z" fill="#553507"/>
<path fill-rule="evenodd" clip-rule="evenodd" d="M17.4486 62.7537C14.5811 62.9163 11.7244 61.6074 10.0701 59.1189C7.61775 55.4303 8.66386 50.4384 12.519 47.9929C16.3742 45.5474 21.4682 46.6443 23.9205 50.3329C24.3045 50.9105 24.6027 51.5201 24.8178 52.1468L28.2704 49.9567C28.0015 49.3522 27.6779 48.7614 27.2982 48.1903C23.603 42.632 15.9946 41.0523 10.3045 44.6619C4.6143 48.2714 2.99709 55.7034 6.69233 61.2616C9.60537 65.6433 14.9502 67.5525 19.8701 66.3961L17.4486 62.7537Z" fill="#553507"/>
<path fill-rule="evenodd" clip-rule="evenodd" d="M86.6773 23.6686C89.5445 23.5063 92.4007 24.8152 94.0549 27.3034C96.5072 30.9921 95.4611 35.9839 91.606 38.4294C87.7508 40.875 82.6568 39.7781 80.2045 36.0894C80.0769 35.8975 79.9587 35.702 79.8499 35.5035L76.4638 37.6514C76.5785 37.8471 76.6995 38.0407 76.8268 38.2321C80.522 43.7903 88.1304 45.37 93.8205 41.7605C99.5107 38.1509 101.128 30.719 97.4327 25.1608C94.5198 20.7793 89.1753 18.8701 84.2556 20.0261L86.6773 23.6686Z" fill="#553507"/>
<path fill-rule="evenodd" clip-rule="evenodd" d="M19.7084 66.1502C18.3898 68.643 18.4519 71.7249 20.1064 74.2135C22.5587 77.9022 27.6527 78.999 31.5079 76.5535C35.363 74.108 36.4091 69.1161 33.9568 65.4275C33.8287 65.2348 33.6934 65.0491 33.5514 64.8706L36.9375 62.7226C37.0744 62.9052 37.2068 63.0927 37.3346 63.2848C41.0298 68.843 39.4126 76.275 33.7224 79.8845C28.0323 83.4941 20.4239 81.9144 16.7287 76.3562C13.8155 71.9743 14.204 66.428 17.287 62.508L19.7084 66.1502Z" fill="#553507"/>
</g>
<defs>
<filter id="filter0_d_590_546" x="0.708984" y="4.59839" width="102.707" height="85.2236" filterUnits="userSpaceOnUse" color-interpolation-filters="sRGB">
<feFlood flood-opacity="0" result="BackgroundImageFix"/>
<feColorMatrix in="SourceAlpha" type="matrix" values="0 0 0 0 0 0 0 0 0 0 0 0 0 0 0 0 0 0 127 0" result="hardAlpha"/>
<feOffset dy="4"/>
<feGaussianBlur stdDeviation="2"/>
<feComposite in2="hardAlpha" operator="out"/>
<feColorMatrix type="matrix" values="0 0 0 0 0 0 0 0 0 0 0 0 0 0 0 0 0 0 0.25 0"/>
<feBlend mode="normal" in2="BackgroundImageFix" result="effect1_dropShadow_590_546"/>
<feBlend mode="normal" in="SourceGraphic" in2="effect1_dropShadow_590_546" result="shape"/>
</filter>
</defs>
</svg>
