<svg width="87" height="78" viewBox="0 0 87 78" fill="none" xmlns="http://www.w3.org/2000/svg">
<path d="M39.7747 17.899C40.4256 22.4 39.7409 26.5431 38.2107 29.5889C36.6757 32.6443 34.4054 34.4183 31.903 34.7256C29.4007 35.0328 26.7055 33.8685 24.3559 31.2901C22.0135 28.7197 20.1755 24.8864 19.5247 20.3854C18.8738 15.8844 19.5585 11.7414 21.0887 8.69552C22.6237 5.64016 24.894 3.86613 27.3963 3.55888C29.8986 3.25164 32.5938 4.41598 34.9435 6.99437C37.2858 9.56474 39.1239 13.398 39.7747 17.899Z" stroke="#553507" stroke-width="4"/>
<path d="M19.0633 33.0324C21.0989 35.1981 22.2638 37.6514 22.5777 39.7967C22.8932 41.9526 22.3425 43.5864 21.274 44.5485C20.2055 45.5105 18.4961 45.9117 16.3273 45.4247C14.169 44.94 11.768 43.5997 9.7323 41.434C7.69661 39.2684 6.53176 36.8151 6.21782 34.6697C5.90235 32.5138 6.45309 30.88 7.52157 29.9179C8.59006 28.9559 10.2994 28.5547 12.4683 29.0418C14.6266 29.5265 17.0276 30.8667 19.0633 33.0324Z" stroke="#553507" stroke-width="4"/>
<path d="M67.7317 32.5116C65.696 34.6773 64.5311 37.1306 64.2172 39.276C63.9017 41.4318 64.4524 43.0656 65.5209 44.0277C66.5894 44.9898 68.2988 45.391 70.4676 44.9039C72.6259 44.4192 75.0269 43.0789 77.0626 40.9133C79.0983 38.7476 80.2632 36.2943 80.5771 34.1489C80.8926 31.9931 80.3418 30.3593 79.2733 29.3972C78.2049 28.4351 76.4955 28.0339 74.3266 28.521C72.1684 29.0057 69.7673 30.346 67.7317 32.5116Z" stroke="#553507" stroke-width="4"/>
<path d="M66.0208 20.3856C65.5634 24.9103 63.8968 28.7647 61.6752 31.3498C59.4466 33.9431 56.8145 35.1152 54.3122 34.8079C51.8099 34.5007 49.4765 32.7189 47.8204 29.6487C46.1694 26.588 45.3134 22.4239 45.7707 17.8992C46.2281 13.3744 47.8947 9.52009 50.1164 6.9349C52.3449 4.34165 54.977 3.16955 57.4793 3.4768C59.9816 3.78404 62.3151 5.56583 63.9711 8.63605C65.6221 11.6967 66.4782 15.8608 66.0208 20.3856Z" stroke="#553507" stroke-width="4"/>
<path d="M43.5792 71.753L43.1395 71.6486L42.6976 71.7434C36.5579 73.0608 28.9849 74.4221 25.3482 75.0601L25.6938 77.03L25.3482 75.0601C24.3399 75.237 23.302 75.1122 22.3522 74.7012C19.6979 73.5526 18.4421 70.4983 19.5208 67.8148L25.2616 53.5335C32.3421 46.3594 37.6204 43.3583 42.7689 43.4013C47.9956 43.445 53.7433 46.6162 61.7649 53.6593L68.0715 66.2977C69.7287 69.6186 68.0933 73.6399 64.5887 74.8615C63.6614 75.1847 62.6799 75.2794 61.7256 75.1344C58.0752 74.5796 50.0471 73.2886 43.5792 71.753Z" stroke="#553507" stroke-width="4"/>
</svg>
