<svg width="120" height="190" viewBox="0 0 120 190" fill="none" xmlns="http://www.w3.org/2000/svg">
<path d="M6 149.621L21.3285 179L76.2555 95.9711L90.0392 48.8768C90.9625 45.7222 89.7714 42.3301 87.0787 40.4451L78.8102 34.6572L6 149.621Z" fill="white" stroke="white" stroke-width="10.219"/>
<path d="M97.9715 177.722L60.9277 124.073L76.2562 98.5254L113.3 147.066L97.9715 177.722Z" fill="white" stroke="white" stroke-width="10.219"/>
<path d="M22.6174 55.0949L41.7671 90.8613L53.2634 67.8686C44.3641 57.9211 41.3095 46.8986 36.6576 33.8586L35.8625 30.3458C41.2955 28.8486 47.212 28.0873 53.2634 26.9927L67.3145 28.2701C76.5841 30.8432 81.923 34.3388 88.753 43.4604C89.2009 44.0585 90.2113 43.5398 89.9626 42.8351L85.1412 29.1743C84.3324 26.8828 83.1655 24.734 81.6838 22.8079L76.0279 15.4551C72.8668 11.3457 68.4096 8.42523 63.3798 7.16779L60.1898 6.37029C54.1313 4.85567 47.7174 5.87056 42.4225 9.18166L36.1307 13.1161C32.3154 15.502 29.2262 18.9319 27.5316 23.1006C23.1054 33.989 21.77 41.979 22.6174 55.0949Z" fill="white"/>
<path d="M23.8839 35.9343C27.4441 33.2267 31.4973 31.5487 35.8625 30.3458M35.8625 30.3458C41.2955 28.8486 47.212 28.0873 53.2634 26.9927L67.3145 28.2701C76.5841 30.8432 81.923 34.3388 88.753 43.4603C89.2009 44.0585 90.2113 43.5398 89.9626 42.8351L85.1412 29.1743C84.3324 26.8828 83.1655 24.734 81.6838 22.8079L76.0279 15.4551C72.8668 11.3457 68.4096 8.42523 63.3798 7.16779L60.1898 6.37029C54.1313 4.85567 47.7174 5.87056 42.4225 9.18166L36.1307 13.1161C32.3154 15.502 29.2262 18.9319 27.5316 23.1006C23.1054 33.989 21.77 41.979 22.6174 55.0949L41.7671 90.8613L53.2634 67.8686C44.3641 57.9211 41.3095 46.8986 36.6576 33.8586L35.8625 30.3458Z" stroke="white" stroke-width="10.219"/>
</svg>
