<svg width="34" height="52" viewBox="0 0 34 52" fill="none" xmlns="http://www.w3.org/2000/svg">
<path d="M21.9708 9.40881L2 40.9417L6.20438 49.0001L21.2701 26.2263L25.4745 11.8614" stroke="#55370C" stroke-width="2.80292"/>
<path d="M17.0664 33.9343L27.227 48.6496L31.4314 40.2409L21.2708 26.927" stroke="#55370C" stroke-width="2.80292"/>
<path d="M11.8106 24.8248L6.55815 15.0146C6.3257 11.4171 6.692 9.22554 7.90603 6.23902C8.37083 5.09561 9.21815 4.15483 10.2646 3.50042L11.9904 2.42125C13.4427 1.51307 15.202 1.2347 16.8637 1.65014L17.7387 1.86888C19.1183 2.21378 20.3408 3.01481 21.2079 4.14197L22.7592 6.15873C23.1656 6.68704 23.4857 7.27643 23.7075 7.90496L25.4749 12.9124C23.197 9.58233 21.7003 8.45705 18.8179 7.65693L14.9639 7.30657C11.9705 7.84803 9.09747 8.09214 6.90551 9.75912M14.9639 18.5182C12.5229 15.7898 11.3348 12.9854 10.0588 9.40876" stroke="#55370C" stroke-width="2.80292"/>
</svg>
