<svg width="80" height="80" viewBox="0 0 80 80" fill="none" xmlns="http://www.w3.org/2000/svg">
<path fill-rule="evenodd" clip-rule="evenodd" d="M23.2227 44.0251C23.042 44.0124 22.8586 44.0078 22.6727 44.0118C19.4682 44.0805 16.9991 46.664 16.9991 49.6284C16.9991 52.5928 19.4682 55.0706 22.6727 55.0019C22.8586 54.9979 23.042 54.9855 23.2227 54.965V58.975C23.0406 58.9889 22.8573 58.9979 22.6727 59.0019C17.3306 59.1164 13 54.9581 13 49.7142C13 44.4702 17.3306 40.1263 22.6727 40.0118C22.8573 40.0078 23.0406 40.009 23.2227 40.0151V44.0251Z" fill="#553507"/>
<path d="M38.3215 62.1862C40.6796 65.7332 39.6611 70.5058 35.9904 72.8343C32.3198 75.1628 27.442 74.1305 25.0839 70.5835C22.7258 67.0365 23.7442 62.2639 27.4149 59.9354C31.0856 57.6069 35.9633 58.6392 38.3215 62.1862Z" stroke="#553507" stroke-width="4"/>
<path d="M69.3215 62.1862C71.6796 65.7332 70.6611 70.5058 66.9904 72.8343C63.3198 75.1628 58.442 74.1305 56.0839 70.5835C53.7258 67.0365 54.7442 62.2639 58.4149 59.9354C62.0856 57.6069 66.9633 58.6392 69.3215 62.1862Z" stroke="#553507" stroke-width="4"/>
<path d="M0 2H11.2791C13.7606 2 15.8666 3.81998 16.2263 6.27527L17.0286 11.7518M17.0286 11.7518L20.9737 38.6822C21.3334 41.1375 23.4394 42.9574 25.9209 42.9574H68.2174C70.6382 42.9574 72.7112 41.2233 73.1388 38.8406L76.9442 17.6349C77.4944 14.569 75.1377 11.7518 72.0229 11.7518H17.0286ZM78 57H21.6" stroke="#553507" stroke-width="4"/>
</svg>
