<svg width="73" height="72" viewBox="0 0 73 72" fill="none" xmlns="http://www.w3.org/2000/svg">
<mask id="path-1-inside-1_705_54" fill="white">
<path fill-rule="evenodd" clip-rule="evenodd" d="M36.7089 70.07C56.752 70.07 73.0002 54.3843 73.0002 35.035C73.0002 15.6857 56.752 0 36.7089 0C16.6658 0 0.417611 15.6857 0.417611 35.035C0.417611 41.4284 2.19156 47.4219 5.2902 52.5816L0 71.6415L20.4309 66.3565C25.3265 68.7324 30.8559 70.07 36.7089 70.07Z"/>
</mask>
<path d="M5.2902 52.5816L9.14449 53.6514L9.6041 51.9955L8.71936 50.5223L5.2902 52.5816ZM0 71.6415L-3.85429 70.5717L-5.70779 77.2496L1.00172 75.514L0 71.6415ZM20.4309 66.3565L22.1773 62.7579L20.8536 62.1155L19.4291 62.484L20.4309 66.3565ZM69.0002 35.035C69.0002 52.0435 54.6769 66.07 36.7089 66.07V74.07C58.8272 74.07 77.0002 56.7251 77.0002 35.035H69.0002ZM36.7089 4C54.6769 4 69.0002 18.0265 69.0002 35.035H77.0002C77.0002 13.3449 58.8272 -4 36.7089 -4V4ZM4.41761 35.035C4.41761 18.0265 18.7409 4 36.7089 4V-4C14.5906 -4 -3.58239 13.3449 -3.58239 35.035H4.41761ZM8.71936 50.5223C5.9805 45.9616 4.41761 40.6767 4.41761 35.035H-3.58239C-3.58239 42.1802 -1.59739 48.8821 1.86105 54.641L8.71936 50.5223ZM3.85429 72.7113L9.14449 53.6514L1.43591 51.5118L-3.85429 70.5717L3.85429 72.7113ZM19.4291 62.484L-1.00172 67.7689L1.00172 75.514L21.4326 70.2291L19.4291 62.484ZM36.7089 66.07C31.4702 66.07 26.537 64.8737 22.1773 62.7579L18.6845 69.9552C24.116 72.5911 30.2416 74.07 36.7089 74.07V66.07Z" fill="black" mask="url(#path-1-inside-1_705_54)"/>
<path d="M29.6561 44.3551C24.3719 37.3679 22.3345 33.2768 21.6114 25.5793C22.2917 23.719 22.8722 22.6285 25.5251 20.2941C27.4869 18.7921 28.6125 18.6457 30.83 19.9651L33.6184 28.4629C32.782 30.6176 31.8945 31.394 30.4184 32.3372C30.947 35.8281 31.8535 37.404 34.2736 39.7803" stroke="black" stroke-width="4"/>
<path d="M29.2646 43.9592C36.2024 49.3081 40.6258 51.738 48.3163 52.5324C50.1827 51.8694 51.2786 51.2991 53.6376 48.668C55.1577 46.7202 55.3145 45.596 54.0157 43.3664L45.5442 40.4992C43.3819 41.3156 42.5973 42.1959 41.6404 43.6631C38.1545 43.1022 36.5871 42.181 34.2334 39.739" stroke="black" stroke-width="4"/>
</svg>
